<?xml version="1.0" encoding="UTF-8" standalone="no"?>
<svg
   width="167.00098"
   height="167.00082"
   viewBox="0 0 167.00098 167.00082"
   version="1.1"
   id="svg55"
   sodipodi:docname="latte-logo.svg"
   inkscape:version="1.2 (1:1.2+202206011327+fc4e4096c5)"
   inkscape:export-filename="latte-logo.png"
   inkscape:export-xdpi="518.40002"
   inkscape:export-ydpi="518.40002"
   xmlns:inkscape="http://www.inkscape.org/namespaces/inkscape"
   xmlns:sodipodi="http://sodipodi.sourceforge.net/DTD/sodipodi-0.dtd"
   xmlns="http://www.w3.org/2000/svg"
   xmlns:svg="http://www.w3.org/2000/svg"
   xmlns:rdf="http://www.w3.org/1999/02/22-rdf-syntax-ns#"
   xmlns:cc="http://creativecommons.org/ns#"
   xmlns:dc="http://purl.org/dc/elements/1.1/">
  <defs
     id="defs59" />
  <sodipodi:namedview
     id="namedview57"
     pagecolor="#505050"
     bordercolor="#ffffff"
     borderopacity="1"
     inkscape:pageshadow="0"
     inkscape:pageopacity="0"
     inkscape:pagecheckerboard="1"
     showgrid="false"
     inkscape:snap-object-midpoints="false"
     inkscape:zoom="1.6919374"
     inkscape:cx="271.28663"
     inkscape:cy="61.172476"
     inkscape:window-width="1600"
     inkscape:window-height="830"
     inkscape:window-x="0"
     inkscape:window-y="0"
     inkscape:window-maximized="1"
     inkscape:current-layer="Latte"
     fit-margin-top="0"
     fit-margin-left="0"
     fit-margin-right="0"
     fit-margin-bottom="0"
     inkscape:showpageshadow="0"
     inkscape:deskcolor="#505050" />
  <title
     id="title43">Latte</title>
  <g
     id="Latte"
     stroke="none"
     stroke-width="1"
     fill="none"
     fill-rule="evenodd"
     transform="translate(-6.4995098,-6.4995892)">
    <path
       d="m 20.54551,6.4995892 0.001,153.0008208 152.953,-8.2e-4 v 14.00082 H 6.4995098 V 6.5004092 Z m 20.82398,1.7e-4 c 1.83007,4.4290308 4.54498,8.5785608 8.14474,12.1783208 14.64466,14.64466 38.38835,14.64466 53.03301,0 3.59976,-3.59976 6.31468,-7.74929 8.14474,-12.1783208 l 13.96653,-1.7e-4 -5.74047,5.7416808 C 106.93285,24.22646 106.813,43.58382 118.55848,55.71646 l 0.35956,0.36543 c 12.10625,12.10625 31.73437,12.10625 43.84062,0 12.10625,-12.10626 12.10625,-31.73437 0,-43.84062 v 0 l -5.74215,-5.7416808 16.483,8.2e-4 9.8e-4,101.2589308 c -2.66505,6.81051 -6.54373,13.41327 -11.27331,18.74224 v 0 l -85.72403,4.1e-4 C 67.38513,116.1094 61.49951,100.8424 61.49951,88.49894 v 0 -37.99888 l 46.13063,4.2e-4 c -1.87395,-3.80787 -3.0533,-7.87102 -3.53806,-12.00021 v 0 l -46.59257,1.4e-4 c -4.41827,0 -8,3.58162 -8,7.99977 v 0 41.99876 c 0,12.55739 4.62946,26.51511 12.27481,38.00263 v 0 l -20.27481,-0.001 v 12 l 132,-8.2e-4 v 9 l -140.954,8.2e-4 V 6.4995892 Z m 99.46945,0.79117 13.43444,13.4356208 0.23678,0.24094 c 7.18232,7.4372 7.1034,19.28894 -0.23678,26.62912 -7.41996,7.41996 -19.4501,7.41996 -26.87006,0 v 0 l -0.23678,-0.24094 c -7.18232,-7.4372 -7.1034,-19.28894 0.23678,-26.62912 v 0 z m -43.71559,-0.79098 c -0.88668,1.30123 -1.90714,2.5386 -3.06139,3.6928508 -9.95837,9.95837 -26.10408,9.95837 -36.06245,0 v 0 L 57.70375,9.8922092 c -1.03367,-1.06775 -1.95563,-2.20352 -2.76587,-3.39262 z"
       id="Combined-Shape"
       fill="#FFFFFF"
       style="fill:#dfe6e9;fill-opacity:1" />
  </g>
  <metadata
     id="metadata11348">
    <rdf:RDF>
      <cc:Work
         rdf:about="">
        <dc:title>Latte</dc:title>
      </cc:Work>
    </rdf:RDF>
  </metadata>
</svg>
