<?xml version="1.0" encoding="UTF-8" standalone="no"?>
<svg
   width="637"
   height="167.00082"
   viewBox="0 0 637 167.00082"
   version="1.1"
   id="svg14"
   sodipodi:docname="latte-logo-og-correct-light-color-minimal-size.svg"
   inkscape:version="1.1.2 (1:1.1+202202050950+0a00cf5339)"
   xmlns:inkscape="http://www.inkscape.org/namespaces/inkscape"
   xmlns:sodipodi="http://sodipodi.sourceforge.net/DTD/sodipodi-0.dtd"
   xmlns="http://www.w3.org/2000/svg"
   xmlns:svg="http://www.w3.org/2000/svg"
   xmlns:rdf="http://www.w3.org/1999/02/22-rdf-syntax-ns#"
   xmlns:cc="http://creativecommons.org/ns#"
   xmlns:dc="http://purl.org/dc/elements/1.1/">
  <defs
     id="defs18" />
  <sodipodi:namedview
     id="namedview16"
     pagecolor="#505050"
     bordercolor="#ffffff"
     borderopacity="1"
     inkscape:pageshadow="0"
     inkscape:pageopacity="0"
     inkscape:pagecheckerboard="1"
     showgrid="false"
     inkscape:zoom="1.5174489"
     inkscape:cx="110.38263"
     inkscape:cy="83.363598"
     inkscape:window-width="1600"
     inkscape:window-height="829"
     inkscape:window-x="0"
     inkscape:window-y="0"
     inkscape:window-maximized="1"
     inkscape:current-layer="svg14"
     fit-margin-top="0"
     fit-margin-left="0"
     fit-margin-right="0"
     fit-margin-bottom="0" />
  <title
     id="title2">Latte</title>
  <g
     id="Latte"
     stroke="none"
     stroke-width="1"
     fill="none"
     fill-rule="evenodd"
     style="fill:#dfe6e9;fill-opacity:1"
     transform="translate(-97,-96.99918)">
    <path
       d="M 111.046,96.99918 111.047,250 264,249.99918 V 264 H 97 V 97 Z m 20.82398,1.63e-4 c 1.83006,4.429037 4.54498,8.578567 8.14474,12.178327 14.64466,14.64466 38.38835,14.64466 53.03301,0 3.59976,-3.59976 6.31467,-7.74929 8.14474,-12.178327 l 13.96653,-1.63e-4 -5.74048,5.74167 c -11.98519,11.9852 -12.10504,31.34256 -0.35955,43.4752 l 0.35955,0.36542 c 12.10626,12.10626 31.73437,12.10626 43.84062,0 12.10626,-12.10625 12.10626,-31.73436 0,-43.84062 v 0 L 247.517,96.99918 264,97 l 9.8e-4,101.25893 c -2.66506,6.81051 -6.54373,13.41326 -11.27332,18.74224 v 0 l -85.72402,4.1e-4 C 157.88562,206.60898 152,191.34199 152,178.99853 v 0 -37.99888 l 46.13063,4.2e-4 c -1.87395,-3.80787 -3.05331,-7.87103 -3.53806,-12.00021 v 0 L 148,129 c -4.41828,0 -8,3.58162 -8,7.99976 v 0 41.99877 c 0,12.55738 4.62946,26.51511 12.27481,38.00263 v 0 L 132,217 v 12 l 132,-8.2e-4 v 9 L 123.046,238 V 96.99918 Z m 99.46944,0.791174 13.43444,13.435623 0.23678,0.24094 c 7.18233,7.4372 7.1034,19.28894 -0.23678,26.62911 -7.41996,7.41997 -19.45009,7.41997 -26.87005,0 v 0 l -0.23678,-0.24094 c -7.18233,-7.4372 -7.1034,-19.28894 0.23678,-26.62911 v 0 z m -43.71558,-0.790982 c -0.88668,1.301229 -1.90714,2.538603 -3.06139,3.692855 -9.95837,9.95837 -26.10408,9.95837 -36.06245,0 v 0 l -0.29576,-0.3006 c -1.03368,-1.067744 -1.95564,-2.203517 -2.76587,-3.39261 z"
       id="Combined-Shape"
       fill="#FFFFFF"
       style="fill:#dfe6e9;fill-opacity:1" />
    <g
       transform="translate(312,115.5)"
       fill="#FFFFFF"
       fill-rule="nonzero"
       id="g11"
       style="fill:#dfe6e9;fill-opacity:1">
      <polygon
         id="Path"
         points="20.240209,109.81101 68,109.81101 68,128.40295 1.8838403e-13,128.40295 0,0 20.240209,0 "
         style="fill:#dfe6e9;fill-opacity:1" />
      <path
         d="m 117.93382,129 c -6.30024,0 -12.18443,-1.18143 -17.65257,-3.5443 C 94.813113,123.09283 90.058211,119.75527 86.016544,115.44304 81.974878,111.1308 78.795037,105.96202 76.477022,99.936709 74.159007,93.911392 73,87.236287 73,79.911392 c 0,-7.324894 1.159007,-14 3.477022,-20.025316 2.318015,-6.025317 5.468137,-11.164557 9.450368,-15.417722 3.98223,-4.253164 8.707414,-7.561181 14.17555,-9.92405 C 105.57108,32.181435 111.51471,31 117.93382,31 c 8.20221,0 15.12653,1.772152 20.77298,5.316456 5.64645,3.544303 10.13389,8.151898 13.46232,13.822784 V 33.126582 H 170 V 126.87342 H 152.16912 V 109.1519 c -3.32843,5.78903 -7.81587,10.5443 -13.46232,14.26582 C 133.06035,127.13924 126.13603,129 117.93382,129 Z M 92.435662,79.911392 c 0,4.607595 0.713235,8.801688 2.139706,12.582279 1.42647,3.780591 3.447304,7.029536 6.062502,9.746839 2.61519,2.7173 5.7356,4.84388 9.36121,6.37974 3.62561,1.53587 7.57813,2.3038 11.85754,2.3038 4.27941,0 8.2022,-0.76793 11.76838,-2.3038 3.56618,-1.53586 6.65686,-3.69198 9.27206,-6.46835 2.61519,-2.776373 4.63603,-6.054854 6.0625,-9.835444 1.42647,-3.780591 2.1397,-7.915612 2.1397,-12.405064 0,-4.607594 -0.71323,-8.801687 -2.1397,-12.582278 -1.42647,-3.780591 -3.44731,-7.059072 -6.0625,-9.835443 -2.6152,-2.776371 -5.70588,-4.902954 -9.27206,-6.379747 -3.56618,-1.476793 -7.48897,-2.21519 -11.76838,-2.21519 -4.27941,0 -8.23193,0.738397 -11.85754,2.21519 -3.62561,1.476793 -6.74602,3.603376 -9.36121,6.379747 -2.615198,2.776371 -4.636032,6.054852 -6.062502,9.835443 -1.426471,3.780591 -2.139706,7.974684 -2.139706,12.582278 z"
         id="Shape"
         style="fill:#dfe6e9;fill-opacity:1" />
      <path
         d="m 306.89223,130 c -9.72765,0 -17.58688,-2.76058 -23.57769,-8.28175 -5.99081,-5.52117 -8.98622,-13.92166 -8.98622,-25.201462 V 50.922628 H 256 v -14.5938 l 18.32832,-2.682113 V 13.151656 L 293.19048,8 V 33.646715 H 327 v 17.275913 h -33.80952 v 42.744525 c 0,6.17421 1.63116,10.834547 4.89348,13.981017 3.26232,3.14648 7.44403,4.71971 12.54511,4.71971 2.96575,0 6.02047,-0.56399 9.16416,-1.69197 3.1437,-1.12798 4.71554,-2.0412 7.20677,-4.41589 v 18.70073 c -2.3726,1.89975 -4.24102,2.51614 -8.09649,3.52538 C 315.04804,129.49538 311.04428,130 306.89223,130 Z"
         id="Path-Copy"
         style="fill:#dfe6e9;fill-opacity:1" />
      <path
         d="m 229.89223,130 c -9.72765,0 -17.58688,-2.76058 -23.57769,-8.28175 -5.99081,-5.52117 -8.98622,-13.92166 -8.98622,-25.201462 V 50.922628 H 179 v -14.5938 l 18.32832,-2.682113 V 13.151656 L 216.19048,8 V 33.646715 H 250 v 17.275913 h -33.80952 v 42.744525 c 0,6.17421 1.63116,10.834547 4.89348,13.981017 3.26232,3.14648 7.44403,4.71971 12.54511,4.71971 2.96575,0 6.02047,-0.56399 9.16416,-1.69197 3.1437,-1.12798 4.71554,-2.0412 7.20677,-4.41589 v 18.70073 c -2.3726,1.89975 -4.24102,2.51614 -8.09649,3.52538 C 238.04804,129.49538 234.04428,130 229.89223,130 Z"
         id="Path-Copy-2"
         style="fill:#dfe6e9;fill-opacity:1" />
      <path
         d="m 381.23529,129 c -7.41176,0 -14.11764,-1.21097 -20.11764,-3.63291 -6,-2.42194 -11.17647,-5.81857 -15.52942,-10.18987 -4.35294,-4.37131 -7.70588,-9.56962 -10.05882,-15.594942 C 333.17647,93.556962 332,86.940928 332,79.734177 c 0,-7.088607 1.14706,-13.586498 3.44118,-19.493671 2.29411,-5.907173 5.5,-11.046413 9.61764,-15.417721 4.11765,-4.371308 9.05883,-7.767933 14.82353,-10.189874 C 365.64706,32.210971 372,31 378.94118,31 c 6.58823,0 12.52941,1.092827 17.82353,3.278481 5.29411,2.185654 9.82352,5.405063 13.58823,9.658228 3.76471,4.253164 6.64706,9.481012 8.64706,15.683544 2,6.202532 3,13.320675 3,21.35443 v 5.316456 h -70.23529 c 1.29411,7.797469 4.73529,14.000001 10.32352,18.607591 5.58824,4.6076 12.79412,6.9114 21.61765,6.9114 6.82353,0 13.2353,-1.29958 19.2353,-3.89874 6,-2.59915 10.70588,-5.8481 14.11764,-9.746833 v 19.493673 c -3.7647,3.30802 -8.88235,6.02531 -15.35294,8.1519 C 395.23529,127.93671 388.41176,129 381.23529,129 Z m 21.35294,-56.531646 c -0.82352,-7.443037 -3.29411,-13.35021 -7.41176,-17.721519 -4.11765,-4.371308 -9.70588,-6.556962 -16.76471,-6.556962 -7.05882,0 -12.94117,2.185654 -17.64705,6.556962 -4.70589,4.371309 -7.70589,10.278482 -9,17.721519 z"
         id="path9"
         style="fill:#dfe6e9;fill-opacity:1" />
    </g>
  </g>
  <metadata
     id="metadata36">
    <rdf:RDF>
      <cc:Work
         rdf:about="">
        <dc:title>Latte</dc:title>
      </cc:Work>
    </rdf:RDF>
  </metadata>
</svg>
